<svg width="24" height="24" viewBox="0 0 24 24" fill="none" xmlns="http://www.w3.org/2000/svg">
<g clip-path="url(#clip0_697_6914)">
<path d="M7.587 2.26981C7.695 2.21981 7.805 2.17181 7.917 2.12581L8.262 1.99081C9.905 1.38381 12.074 1.11281 15.742 2.02981C17.381 2.43981 18.612 3.71381 19.41 5.14981C20.412 6.95381 21 9.37781 21 11.9998C21 14.6228 20.412 17.0458 19.41 18.8498C18.611 20.2858 17.38 21.5598 15.742 21.9698C12.074 22.8868 9.905 22.6158 8.262 22.0098L7.918 21.8738C7.80721 21.828 7.6972 21.7803 7.588 21.7308C6.191 21.0978 5.05 19.7568 4.266 18.0928C3.473 16.4098 3 14.3088 3 11.9998C3 9.69081 3.473 7.58981 4.266 5.90681C5.05 4.24281 6.19 2.90181 7.587 2.26981ZM15 3.99981C14.147 3.99981 13.165 4.63381 12.339 6.12181C11.53 7.57581 11 9.65181 11 11.9998C11 14.3478 11.53 16.4238 12.339 17.8778C13.165 19.3658 14.147 19.9998 15 19.9998C15.853 19.9998 16.835 19.3658 17.661 17.8778C18.47 16.4238 19 14.3478 19 11.9998C19 9.65181 18.47 7.57581 17.661 6.12181C16.835 4.63381 15.853 3.99981 15 3.99981ZM15 8.49981C15.706 8.49981 16.21 9.05881 16.508 9.65481C16.821 10.2808 17 11.1108 17 11.9998C17 12.8898 16.82 13.7188 16.508 14.3448C16.21 14.9408 15.706 15.4998 15 15.4998C14.294 15.4998 13.79 14.9408 13.492 14.3448C13.18 13.7188 13 12.8888 13 11.9998C13 11.1098 13.18 10.2808 13.492 9.65481C13.79 9.05981 14.294 8.49981 15 8.49981Z" fill="#052023"/>
</g>
<defs>
<clipPath id="clip0_697_6914">
<rect width="24" height="24" fill="white"/>
</clipPath>
</defs>
</svg>
