<svg width="24" height="24" viewBox="0 0 24 24" fill="none" xmlns="http://www.w3.org/2000/svg">
<path d="M16.612 3.95617C13.865 2.73517 10.562 4.23417 10.232 7.42917C10.0765 8.94786 9.99904 10.4735 10 12.0002C10 13.7302 10.097 15.2692 10.231 16.5702C10.561 19.7662 13.865 21.2652 16.612 20.0442L16.837 19.9442C18.3737 19.2611 19.6793 18.147 20.5956 16.737C21.5119 15.3269 21.9996 13.6813 21.9996 11.9997C21.9996 10.318 21.5119 8.67246 20.5956 7.26238C19.6793 5.8523 18.3737 4.73823 16.837 4.05517L16.612 3.95517V3.95617ZM3 6.00017C2.73478 6.00017 2.48043 6.10553 2.29289 6.29307C2.10536 6.4806 2 6.73496 2 7.00017C2 7.26539 2.10536 7.51974 2.29289 7.70728C2.48043 7.89482 2.73478 8.00017 3 8.00017H8C8.26522 8.00017 8.51957 7.89482 8.70711 7.70728C8.89464 7.51974 9 7.26539 9 7.00017C9 6.73496 8.89464 6.4806 8.70711 6.29307C8.51957 6.10553 8.26522 6.00017 8 6.00017H3ZM3 11.0002C2.73478 11.0002 2.48043 11.1055 2.29289 11.2931C2.10536 11.4806 2 11.735 2 12.0002C2 12.2654 2.10536 12.5197 2.29289 12.7073C2.48043 12.8948 2.73478 13.0002 3 13.0002H8C8.26522 13.0002 8.51957 12.8948 8.70711 12.7073C8.89464 12.5197 9 12.2654 9 12.0002C9 11.735 8.89464 11.4806 8.70711 11.2931C8.51957 11.1055 8.26522 11.0002 8 11.0002H3ZM2 17.0002C2 16.735 2.10536 16.4806 2.29289 16.2931C2.48043 16.1055 2.73478 16.0002 3 16.0002H8C8.26522 16.0002 8.51957 16.1055 8.70711 16.2931C8.89464 16.4806 9 16.735 9 17.0002C9 17.2654 8.89464 17.5197 8.70711 17.7073C8.51957 17.8948 8.26522 18.0002 8 18.0002H3C2.73478 18.0002 2.48043 17.8948 2.29289 17.7073C2.10536 17.5197 2 17.2654 2 17.0002Z" fill="#052023"/>
</svg>
