<svg width="34" height="34" viewBox="0 0 34 34" fill="none" xmlns="http://www.w3.org/2000/svg">
<path d="M29.6439 9.01C25.2027 2.125 16.1077 0.085 9.07395 4.35625C2.2102 8.6275 0.000203848 17.935 4.44145 24.7988L4.8027 25.3513L3.3152 30.9188L8.8827 29.4313L9.4352 29.7925C11.8365 31.0888 14.4502 31.8325 17.0427 31.8325C19.8265 31.8325 22.6102 31.0888 25.0115 29.6013C31.8752 25.1388 33.9152 16.0225 29.6439 8.9675V9.01ZM25.7552 23.3325C25.0115 24.4375 24.0765 25.1812 22.7802 25.3725C22.0365 25.3725 21.1014 25.7338 17.404 24.2675C14.259 22.78 11.6452 20.3575 9.79645 17.5738C8.69145 16.2775 8.1177 14.5988 7.9477 12.92C7.9477 11.4325 8.5002 10.1362 9.4352 9.20125C9.79645 8.84 10.179 8.64875 10.5402 8.64875H11.4752C11.8365 8.64875 12.219 8.64875 12.4102 9.3925C12.7715 10.3275 13.7065 12.5588 13.7065 12.75C13.8977 12.9413 13.8127 14.365 12.9627 15.1725C12.4952 15.7037 12.4102 15.725 12.6015 16.1075C13.3452 17.2125 14.2802 18.3387 15.194 19.2738C16.299 20.2088 17.4252 20.9525 18.7215 21.505C19.0827 21.6963 19.4652 21.6962 19.6565 21.3137C19.8477 20.9525 20.7615 20.0175 21.144 19.635C21.5052 19.2738 21.6965 19.2738 22.079 19.4438L25.054 20.9313C25.4152 21.1225 25.7977 21.2925 25.989 21.4837C26.1802 22.0362 26.1802 22.78 25.7977 23.3325H25.7552Z" fill="#0D5C63"/>
</svg>
